<svg width="66" height="72" viewBox="0 0 66 72" fill="none" xmlns="http://www.w3.org/2000/svg">
<path d="M34.98 32.4C33.66 32.04 32.34 31.32 31.35 30.24C30.36 29.88 30.03 28.8 30.03 28.08C30.03 27.36 30.36 26.28 31.02 25.92C32.01 25.2 33 24.48 33.99 24.84C35.97 24.84 37.62 25.92 38.61 27.36L41.58 23.04C40.59 21.96 39.6 21.24 38.61 20.52C37.62 19.8 36.3 19.44 34.98 19.44V14.4H31.02V19.44C29.37 19.8 27.72 20.88 26.4 22.32C25.08 24.12 24.09 26.28 24.42 28.44C24.42 30.6 25.08 32.76 26.4 34.2C28.05 36 30.36 37.08 32.34 38.16C33.33 38.52 34.65 39.24 35.64 39.96C36.3 40.68 36.63 41.76 36.63 42.84C36.63 43.92 36.3 45 35.64 46.08C34.65 47.16 33.33 47.52 32.34 47.52C31.02 47.52 29.37 47.16 28.38 46.08C27.39 45.36 26.4 44.28 25.74 43.2L22.44 47.16C23.43 48.6 24.42 49.68 25.74 50.76C27.39 51.84 29.37 52.92 31.35 52.92V57.6H34.98V52.2C36.96 51.84 38.61 50.76 39.93 49.32C41.58 47.52 42.57 44.64 42.57 42.12C42.57 39.96 41.91 37.44 40.26 36C38.61 34.2 36.96 33.12 34.98 32.4ZM33 7.20001C18.48 7.20001 6.59998 20.16 6.59998 36C6.59998 51.84 18.48 64.8 33 64.8C47.52 64.8 59.4 51.84 59.4 36C59.4 20.16 47.52 7.20001 33 7.20001ZM33 60.84C20.46 60.84 10.23 49.68 10.23 36C10.23 22.32 20.46 11.16 33 11.16C45.54 11.16 55.77 22.32 55.77 36C55.77 49.68 45.54 60.84 33 60.84Z" fill="black"/>
</svg>
