<svg width="20" height="20" viewBox="0 0 20 20" fill="none" xmlns="http://www.w3.org/2000/svg">
<g clip-path="url(#clip0_39_2696)">
<path d="M10.4836 0.865967L8.29928 4.16604L9.4601 4.31187C9.09994 5.48882 9.0267 6.29929 9.11303 7.9103C9.66529 7.82319 10.1115 7.79214 10.6984 7.9646C10.3126 6.52554 10.3529 6.03386 10.5078 4.45804L11.7821 4.54698L10.4836 0.865967ZM19.018 0.952295L14.7852 2.12534L15.6022 3.13999C13.6681 4.35167 12.4643 5.30983 11.5108 7.95108C12.0265 7.94515 12.6084 8.06519 13.2363 8.3028C13.4601 6.55804 14.5543 5.32858 16.3341 4.04819L17.1147 5.01757L19.018 0.952334V0.952295ZM0.909668 1.04253L3.48307 5.04585L4.22854 3.92433C5.61736 5.19151 6.49982 6.90597 6.46713 8.12081C7.19244 7.78112 7.63615 7.74866 8.4099 7.97323C8.0933 6.75437 6.70768 3.72628 4.83025 2.93015L5.47752 1.91308L0.909707 1.04249L0.909668 1.04253ZM11.6955 9.42796C11.4892 9.43265 11.2967 9.52229 11.0339 9.80272L10.7774 10.075L10.5113 9.81245C10.2228 9.52808 9.9951 9.44956 9.76428 9.45972C9.5335 9.46987 9.26213 9.59124 8.95861 9.8369L8.71576 10.0334L8.48506 9.82347C8.1374 9.50893 7.84111 9.41569 7.55732 9.43034C7.35076 9.44104 7.13643 9.51886 6.92256 9.65495L8.52279 12.5335C9.12646 12.9026 10.3601 13.0415 11.2083 12.614L12.755 9.74901C12.4616 9.6294 12.1979 9.50675 11.9701 9.45972C11.8876 9.44265 11.8111 9.43019 11.7369 9.42796C11.7231 9.42761 11.7093 9.42761 11.6955 9.42796H11.6955ZM8.18104 13.1853V13.1854C7.47654 13.6831 6.91088 14.5415 6.69178 15.7988C6.47947 17.0174 6.814 17.8405 7.40596 18.4014C7.99795 18.9623 8.8865 19.2504 9.78877 19.2387C10.6911 19.227 11.591 18.9141 12.196 18.3428C12.8011 17.7714 13.1432 16.959 12.9492 15.7964C12.7485 14.595 12.2304 13.7594 11.5746 13.2537C10.462 13.8418 9.07084 13.7168 8.181 13.1853H8.18104Z" fill="#9E9E9E"/>
</g>
<defs>
<clipPath id="clip0_39_2696">
<rect width="20" height="20" fill="white"/>
</clipPath>
</defs>
</svg>
