<?xml version="1.0" encoding="utf-8"?>
<!-- Svg Vector Icons : http://www.onlinewebfonts.com/icon -->
<!DOCTYPE svg PUBLIC "-//W3C//DTD SVG 1.1//EN" "http://www.w3.org/Graphics/SVG/1.1/DTD/svg11.dtd">
<svg version="1.1" xmlns="http://www.w3.org/2000/svg" xmlns:xlink="http://www.w3.org/1999/xlink" x="0px" y="0px" viewBox="0 0 1000 1000" enable-background="new 0 0 1000 1000" xml:space="preserve">
<metadata> Svg Vector Icons : http://www.onlinewebfonts.com/icon </metadata>
<g><g transform="translate(0.000000,511.000000) scale(0.100000,-0.100000)"><path d="M4532.8,4977.9c-716.8-121.6-1399.4-569.6-1804.7-1192.5c-147.2-224-204.8-343.4-294.4-599.4c-128-364.8-142.9-524.8-147.2-1414.3l-4.3-791.4h-345.6c-189.9,0-394.6-10.7-456.5-21.3c-354.1-66.1-650.6-356.3-723.2-699.7c-17.1-78.9-23.5-750.9-23.5-2186.5c0-2288.9-4.3-2212.1,134.4-2444.7c89.6-147.2,226.1-268.8,398.9-352l138.7-66.1H5000h3594.4l140.8,68.3c177.1,87.5,309.3,204.8,396.8,349.8c138.7,232.5,134.4,155.7,134.4,2444.7c0,1435.6-6.4,2107.6-23.5,2186.5c-72.5,343.4-369.1,633.5-723.2,699.7c-61.9,10.7-268.8,21.3-460.8,21.3h-349.9v797.8c0,861.8-12.8,998.3-119.5,1337.5c-130.1,411.7-330.6,744.5-642.1,1066.6c-535.4,552.5-1203.1,834.1-1968.9,827.7C4831.5,5007.8,4631,4995,4532.8,4977.9z M5309.3,4084.1c659.1-115.2,1211.6-593,1414.3-1226.6c78.9-247.5,89.6-373.3,89.6-1134.9V980.3H5000H3186.8v742.3c0,424.5,10.7,797.8,23.5,870.3c89.6,509.8,373.3,940.7,804.2,1224.5C4398.4,4069.1,4852.8,4163,5309.3,4084.1z M8359.8-1910.2v-1983.9l-3364.1-6.4l-3366.2-4.3v1983.9V63l2875.5,6.4c1580.7,2.2,3095.3,4.3,3364.1,4.3h490.6V-1910.2z"/><path d="M4669.4-672.9c-162.1-44.8-394.6-168.5-516.2-277.3c-145.1-128-313.6-381.8-371.2-561c-61.9-198.4-76.8-507.7-32-686.9c147.2-584.5,667.7-1002.6,1250-1002.6c475.7,0,940.7,294.4,1147.7,725.3c46.9,100.3,98.1,241.1,113.1,315.7c34.1,174.9,14.9,467.2-42.7,648.5c-57.6,177.1-224,433-371.2,561C5721-839.3,5492.8-717.7,5320-672.9C5174.9-634.5,4814.4-634.5,4669.4-672.9z M5270.9-1379c377.6-181.3,443.7-704,125.8-983.4c-388.2-343.4-996.2-72.5-991.9,441.6c0,226.1,83.2,390.4,256,505.6C4846.4-1293.7,5066.1-1278.7,5270.9-1379z"/></g></g>
</svg>