<svg class="svg-icon" style="width: 1em; height: 1em;vertical-align: middle;fill: currentColor;overflow: hidden;" viewBox="0 0 1024 1024" version="1.1" xmlns="http://www.w3.org/2000/svg"><path d="M506.4704 606.0032a204.8 204.8 0 1 1 201.5232-204.8 203.5712 203.5712 0 0 1-201.5232 204.8z m0-386.4576a181.4528 181.4528 0 1 0 177.8688 181.3504 179.9168 179.9168 0 0 0-177.8688-181.4528z"  /><path d="M506.4704 611.1232a210.2272 210.2272 0 1 1 206.6432-210.2272 208.6912 208.6912 0 0 1-206.6432 210.2272z m0-409.6a199.9872 199.9872 0 1 0 196.4032 199.3728 198.4512 198.4512 0 0 0-196.4032-199.8848z m0 386.4576a186.5728 186.5728 0 1 1 182.9888-187.0848 185.0368 185.0368 0 0 1-182.9888 186.5728z m0-362.9056a176.3328 176.3328 0 1 0 172.7488 175.8208 174.7968 174.7968 0 0 0-172.7488-176.3328z"  /><path d="M771.7888 812.8512a11.776 11.776 0 0 1-11.264-8.3968 264.704 264.704 0 0 0-508.2112 0 11.776 11.776 0 1 1-22.528-6.8608 288.3584 288.3584 0 0 1 552.96 0 11.776 11.776 0 0 1-11.264 15.2576z"  /><path d="M241.0496 817.9712A16.896 16.896 0 0 1 225.28 796.16a293.4784 293.4784 0 0 1 563.2 0 16.896 16.896 0 0 1-11.264 21.0944 17.2032 17.2032 0 0 1-21.0944-11.264 259.584 259.584 0 0 0-498.3808 0 16.9984 16.9984 0 0 1-16.6912 11.9808z m265.4208-222.3104A283.8528 283.8528 0 0 0 234.5984 798.72a6.656 6.656 0 1 0 12.8 3.8912 269.824 269.824 0 0 1 518.0416 0 6.9632 6.9632 0 0 0 8.2944 4.4032A6.656 6.656 0 0 0 778.24 798.72a283.8528 283.8528 0 0 0-271.7696-203.0592z"  /></svg>