<svg width="20" height="20" viewBox="0 0 20 20" fill="none" xmlns="http://www.w3.org/2000/svg">
<path d="M4.75816 5.24167C4.67891 5.1658 4.58546 5.10633 4.48316 5.06667C4.28028 4.98332 4.05271 4.98332 3.84983 5.06667C3.74754 5.10633 3.65408 5.1658 3.57483 5.24167L1.90816 6.90833C1.75124 7.06525 1.66309 7.27808 1.66309 7.5C1.66309 7.72192 1.75124 7.93475 1.90816 8.09167C2.06508 8.24859 2.27791 8.33674 2.49983 8.33674C2.72175 8.33674 2.93458 8.24859 3.0915 8.09167L3.33316 7.84167V14.1667C3.33316 14.3877 3.42096 14.5996 3.57724 14.7559C3.73352 14.9122 3.94548 15 4.1665 15C4.38751 15 4.59947 14.9122 4.75575 14.7559C4.91203 14.5996 4.99983 14.3877 4.99983 14.1667V7.84167L5.2415 8.09167C5.31896 8.16977 5.41113 8.23177 5.51268 8.27408C5.61423 8.31638 5.72315 8.33817 5.83316 8.33817C5.94317 8.33817 6.05209 8.31638 6.15364 8.27408C6.25519 8.23177 6.34736 8.16977 6.42483 8.09167C6.50294 8.0142 6.56493 7.92203 6.60724 7.82048C6.64955 7.71893 6.67133 7.61001 6.67133 7.5C6.67133 7.38999 6.64955 7.28107 6.60724 7.17952C6.56493 7.07797 6.50294 6.9858 6.42483 6.90833L4.75816 5.24167ZM9.1665 6.66667H17.4998C17.7208 6.66667 17.9328 6.57887 18.0891 6.42259C18.2454 6.26631 18.3332 6.05435 18.3332 5.83333C18.3332 5.61232 18.2454 5.40036 18.0891 5.24408C17.9328 5.0878 17.7208 5 17.4998 5H9.1665C8.94548 5 8.73352 5.0878 8.57724 5.24408C8.42096 5.40036 8.33316 5.61232 8.33316 5.83333C8.33316 6.05435 8.42096 6.26631 8.57724 6.42259C8.73352 6.57887 8.94548 6.66667 9.1665 6.66667ZM17.4998 13.3333H9.1665C8.94548 13.3333 8.73352 13.4211 8.57724 13.5774C8.42096 13.7337 8.33316 13.9457 8.33316 14.1667C8.33316 14.3877 8.42096 14.5996 8.57724 14.7559C8.73352 14.9122 8.94548 15 9.1665 15H17.4998C17.7208 15 17.9328 14.9122 18.0891 14.7559C18.2454 14.5996 18.3332 14.3877 18.3332 14.1667C18.3332 13.9457 18.2454 13.7337 18.0891 13.5774C17.9328 13.4211 17.7208 13.3333 17.4998 13.3333ZM17.4998 9.16667H9.1665C8.94548 9.16667 8.73352 9.25446 8.57724 9.41074C8.42096 9.56702 8.33316 9.77899 8.33316 10C8.33316 10.221 8.42096 10.433 8.57724 10.5893C8.73352 10.7455 8.94548 10.8333 9.1665 10.8333H17.4998C17.7208 10.8333 17.9328 10.7455 18.0891 10.5893C18.2454 10.433 18.3332 10.221 18.3332 10C18.3332 9.77899 18.2454 9.56702 18.0891 9.41074C17.9328 9.25446 17.7208 9.16667 17.4998 9.16667Z" fill="#9E9E9E"/>
</svg>
