<svg width="20" height="20" viewBox="0 0 20 20" fill="none" xmlns="http://www.w3.org/2000/svg">
<path fill-rule="evenodd" clip-rule="evenodd" d="M9.99978 14.5467C9.23806 14.8952 8.40099 15.0468 7.56542 14.9875C6.72986 14.9281 5.92259 14.6599 5.21774 14.2072C4.51289 13.7546 3.93305 13.1322 3.53147 12.397C3.12989 11.6619 2.91943 10.8377 2.91943 10C2.91943 9.16234 3.12989 8.3381 3.53147 7.60297C3.93305 6.86784 4.51289 6.24539 5.21774 5.79276C5.92259 5.34014 6.72986 5.07186 7.56542 5.01255C8.40099 4.95324 9.23806 5.10481 9.99978 5.45333C10.7615 5.10481 11.5986 4.95324 12.4341 5.01255C13.2697 5.07186 14.077 5.34014 14.7818 5.79276C15.4867 6.24539 16.0665 6.86784 16.4681 7.60297C16.8697 8.3381 17.0801 9.16234 17.0801 10C17.0801 10.8377 16.8697 11.6619 16.4681 12.397C16.0665 13.1322 15.4867 13.7546 14.7818 14.2072C14.077 14.6599 13.2697 14.9281 12.4341 14.9875C11.5986 15.0468 10.7615 14.8952 9.99978 14.5467ZM8.33311 13.3075C7.86406 13.3662 7.38789 13.3245 6.93619 13.1852C6.48449 13.0458 6.0676 12.812 5.71319 12.4992C5.35877 12.1864 5.07494 11.8018 4.88053 11.3709C4.68612 10.94 4.58558 10.4727 4.58558 10C4.58558 9.52729 4.68612 9.05999 4.88053 8.62911C5.07494 8.19823 5.35877 7.81363 5.71319 7.50083C6.0676 7.18803 6.48449 6.95419 6.93619 6.81482C7.38789 6.67546 7.86406 6.63376 8.33311 6.6925C7.52597 7.60503 7.08126 8.78173 7.08311 10C7.08149 11.2182 7.52617 12.3948 8.33311 13.3075ZM11.6664 6.6925C12.1355 6.63376 12.6117 6.67546 13.0634 6.81482C13.5151 6.95419 13.9319 7.18803 14.2864 7.50083C14.6408 7.81363 14.9246 8.19823 15.119 8.62911C15.3134 9.05999 15.414 9.52729 15.414 10C15.414 10.4727 15.3134 10.94 15.119 11.3709C14.9246 11.8018 14.6408 12.1864 14.2864 12.4992C13.9319 12.812 13.5151 13.0458 13.0634 13.1852C12.6117 13.3245 12.1355 13.3662 11.6664 13.3075C12.4735 12.3949 12.9182 11.2183 12.9164 10C12.9182 8.78175 12.4735 7.60507 11.6664 6.6925ZM9.99978 7.3975C10.7623 8.00833 11.2498 8.9475 11.2498 10C11.2498 11.0525 10.7623 11.9917 9.99978 12.6025C9.60934 12.2904 9.29422 11.8944 9.07782 11.4439C8.86141 10.9933 8.74929 10.4998 8.74978 10C8.74978 8.9475 9.23728 8.00833 9.99978 7.3975Z" fill="#9E9E9E"/>
</svg>
