<svg width="15" height="15" viewBox="0 0 15 15" fill="none" xmlns="http://www.w3.org/2000/svg">
<path d="M10.8116 9.87956C11.295 9.64234 11.8482 9.5073 12.4374 9.5073H12.4394C12.4993 9.5073 12.5273 9.44161 12.4834 9.40511C11.8706 8.9027 11.1706 8.49691 10.4121 8.20438C10.4041 8.20073 10.3962 8.1989 10.3882 8.19525C11.6285 7.37226 12.4354 6.03467 12.4354 4.52555C12.4354 2.02555 10.2224 0 7.49204 0C4.76168 0 2.55064 2.02555 2.55064 4.52555C2.55064 6.03467 3.35756 7.37226 4.5999 8.19525C4.59191 8.1989 4.58392 8.20073 4.57593 8.20438C3.68313 8.54927 2.8822 9.0438 2.19312 9.67518C1.50802 10.3 0.962591 11.0406 0.587265 11.8558C0.217985 12.6541 0.018688 13.5094 4.99452e-05 14.3759C-0.000483152 14.3954 0.0032559 14.4148 0.0110469 14.4329C0.0188379 14.451 0.0305232 14.4676 0.0454141 14.4815C0.0603051 14.4955 0.0781005 14.5065 0.0977517 14.5141C0.117403 14.5217 0.138513 14.5256 0.159836 14.5255H1.35624C1.44212 14.5255 1.51403 14.4617 1.51602 14.3832C1.55597 12.9745 2.17315 11.6551 3.26568 10.6551C4.39418 9.62044 5.89617 9.05109 7.49403 9.05109C8.62652 9.05109 9.71307 9.33759 10.6498 9.87409C10.6739 9.8879 10.7015 9.89568 10.7299 9.89664C10.7583 9.8976 10.7865 9.89171 10.8116 9.87956ZM7.49403 7.66423C6.57926 7.66423 5.71841 7.33759 5.06927 6.74453C4.74989 6.45348 4.49669 6.10758 4.32427 5.72675C4.15184 5.34592 4.0636 4.93768 4.06462 4.52555C4.06462 3.68796 4.42214 2.89963 5.06927 2.30657C5.71641 1.7135 6.57726 1.38686 7.49403 1.38686C8.41081 1.38686 9.26966 1.7135 9.91879 2.30657C10.2382 2.59761 10.4914 2.94351 10.6638 3.32435C10.8362 3.70518 10.9245 4.11342 10.9234 4.52555C10.9234 5.36314 10.5659 6.15146 9.91879 6.74453C9.26966 7.33759 8.40881 7.66423 7.49403 7.66423ZM14.8402 12.0073H13.1625V10.4745C13.1625 10.3942 13.0906 10.3285 13.0027 10.3285H11.8842C11.7963 10.3285 11.7244 10.3942 11.7244 10.4745V12.0073H10.0466C9.95874 12.0073 9.88683 12.073 9.88683 12.1533V13.1752C9.88683 13.2555 9.95874 13.3212 10.0466 13.3212H11.7244V14.854C11.7244 14.9343 11.7963 15 11.8842 15H13.0027C13.0906 15 13.1625 14.9343 13.1625 14.854V13.3212H14.8402C14.9281 13.3212 15 13.2555 15 13.1752V12.1533C15 12.073 14.9281 12.0073 14.8402 12.0073Z" fill="#9E9E9E"/>
</svg>
