<svg width="20" height="20" viewBox="0 0 20 20" fill="none" xmlns="http://www.w3.org/2000/svg">
<path d="M14.2502 7.20665C14.1644 7.28639 14.052 7.33146 13.9349 7.33316C13.8177 7.33485 13.7041 7.29304 13.616 7.21582C12.763 6.49582 11.6831 6.10033 10.5669 6.09915C9.64852 6.09915 8.72936 6.40165 8.72936 7.24415C8.72936 8.09665 9.71435 8.38082 10.851 8.80665C12.8394 9.46998 14.4869 10.3033 14.4869 12.2542C14.4869 14.375 12.8394 15.8333 10.1502 15.9942L9.90435 17.1308C9.88251 17.2353 9.82534 17.329 9.74247 17.3963C9.65959 17.4635 9.55608 17.5001 9.44935 17.5H7.75436L7.66935 17.4908C7.54806 17.4637 7.44231 17.3899 7.37495 17.2854C7.30759 17.1809 7.28403 17.0542 7.30935 16.9325L7.57435 15.7292C6.55366 15.4733 5.61496 14.9617 4.84685 14.2425V14.2333C4.8044 14.1911 4.77071 14.1409 4.74772 14.0857C4.72473 14.0304 4.71289 13.9711 4.71289 13.9112C4.71289 13.8514 4.72473 13.7921 4.74772 13.7368C4.77071 13.6815 4.8044 13.6314 4.84685 13.5892L5.79435 12.6708C5.97269 12.5042 6.25019 12.5042 6.42852 12.6708C7.29504 13.4894 8.44661 13.9378 9.63852 13.9208C10.8702 13.9208 11.6935 13.4 11.6935 12.5758C11.6935 11.7517 10.8602 11.5342 9.28852 10.9475C7.62185 10.3508 6.04019 9.50748 6.04019 7.53832C6.04019 5.24665 7.94352 4.12915 10.1977 4.02498L10.4344 2.85998C10.4563 2.75647 10.5136 2.66386 10.5966 2.59813C10.6795 2.5324 10.7827 2.49769 10.8885 2.49998H12.5744L12.6694 2.50998C12.7278 2.52226 12.7833 2.54597 12.8325 2.57975C12.8818 2.61352 12.9239 2.65671 12.9564 2.70681C12.989 2.75691 13.0113 2.81295 13.0221 2.8717C13.0329 2.93045 13.0319 2.99076 13.0194 3.04915L12.7635 4.34665C13.623 4.6319 14.4201 5.07881 15.1119 5.66332L15.131 5.68165C15.311 5.87165 15.311 6.15582 15.131 6.32582L14.2502 7.20665Z" stroke="#9E9E9E" stroke-width="2" stroke-linecap="round" stroke-linejoin="round"/>
</svg>
